# xmcd
#
# Track frame offsets: 
#        150
#        20587
#        31808
#        47202
#        60242
#        80716
#        101534
#        119592
#        135444
#        153797
#        169377
#        188526
#        208306
#        228788
#
# Disc length: 3334 seconds
#
# Revision: 0
# Processed by: cddbd v1.5.2PL0 Copyright (c) Steve Scherf et al.
# Submitted via: ExactAudioCopyFreeDBPlugin 1.0
#
DISCID=b20d040e
DTITLE=Garth Brooks - Scarecrow
DYEAR=2014
DGENRE=Country
TTITLE0=Why Ain't I Running
TTITLE1=Beer Run
TTITLE2=More Than a Memory
TTITLE3=Thicker Than Blood
TTITLE4=Wrapped Up in You
TTITLE5=The Storm
TTITLE6=Big Money
TTITLE7=Squeeze Me In
TTITLE8=Mr. Midnight
TTITLE9=Good Ride Cowboy
TTITLE10=Pushing Up Daisies
TTITLE11=Rodeo or Mexico
TTITLE12=Don't Cross the River
TTITLE13=When You Come Back to Me Again
EXTD=
EXTT0=
EXTT1=
EXTT2=
EXTT3=
EXTT4=
EXTT5=
EXTT6=
EXTT7=
EXTT8=
EXTT9=
EXTT10=
EXTT11=
EXTT12=
EXTT13=
PLAYORDER=
